<svg width="34" height="38" viewBox="0 0 34 38" xmlns="http://www.w3.org/2000/svg" xmlns:xlink="http://www.w3.org/1999/xlink"><title>24A6BA17-D81A-418E-8934-9511B8388BB2</title><defs><path d="M24.705 37.297c-.388.388-1.141.703-1.702.703H2.998A3.004 3.004 0 0 1 0 35.002V2.998A3.004 3.004 0 0 1 2.998 0h28.004A3.004 3.004 0 0 1 34 2.998v24.009c0 .55-.31 1.306-.703 1.698l-8.592 8.592z" id="a"/><mask id="c" x="0" y="0" width="34" height="38" fill="#fff"><use xlink:href="#a"/></mask><path d="M22 38.001V29A2.999 2.999 0 0 1 24.999 26H34" id="b"/><mask id="d" x="0" y="0" width="12.001" height="12.001" fill="#fff"><use xlink:href="#b"/></mask></defs><g stroke="#40474F" fill="none" fill-rule="evenodd"><use mask="url(#c)" stroke-width="4" xlink:href="#a"/><path d="M2 8h31" stroke-width="2" stroke-linecap="round"/><use mask="url(#d)" stroke-width="4" stroke-linecap="square" xlink:href="#b"/><path d="M7 15h20M7 21h20M7 27h10" stroke-width="2" stroke-linecap="round"/></g></svg>