<svg width="36" height="30" viewBox="0 0 36 30" xmlns="http://www.w3.org/2000/svg" xmlns:xlink="http://www.w3.org/1999/xlink"><title>836AC44F-A275-4149-9C06-B7933CDCC1BA</title><defs><path d="M7 15A6 6 0 1 0 7 3a6 6 0 0 0 0 12z" id="a"/><mask id="b" x="0" y="0" width="12" height="12" fill="#fff"><use xlink:href="#a"/></mask></defs><g stroke="#40474F" fill="none" fill-rule="evenodd"><path d="M5.912 18H4A2.998 2.998 0 0 1 1 15.006V3.994A2.998 2.998 0 0 1 4.002 1h27.996A3 3 0 0 1 35 3.994v11.012A2.991 2.991 0 0 1 32.003 18h-1.889" stroke-width="2" stroke-linecap="round" fill="#FFF"/><g transform="rotate(90 11 16)"><path d="M0 0h23c.552 0 1 .445 1 .993v16.014A.997.997 0 0 1 23 18H0" stroke-width="2" stroke-linecap="round" stroke-linejoin="round" fill="#FFF"/><use mask="url(#b)" stroke-width="4" xlink:href="#a"/></g></g></svg>