<svg id="Слой_1" xmlns="http://www.w3.org/2000/svg" viewBox="-440 269 24 24"><style>.st0{fill:#3f4d60}</style><title>45FF01B8-46F5-4137-A4BD-9D12E040070D</title><path id="Fill-1_1_" class="st0" d="M-428 271.2c3.2 0 3.6 0 4.8.1s1.8.2 2.2.4c.6.2 1 .5 1.4.9s.7.8.9 1.4c.2.4.4 1.1.4 2.2.1 1.3.1 1.6.1 4.8s0 3.6-.1 4.8c-.1 1.2-.2 1.8-.4 2.2-.2.6-.5 1-.9 1.4s-.8.7-1.4.9c-.4.2-1.1.4-2.2.4-1.3.1-1.6.1-4.8.1s-3.6 0-4.8-.1-1.8-.2-2.2-.4c-.6-.2-1-.5-1.4-.9s-.7-.8-.9-1.4c-.2-.4-.4-1.1-.4-2.2-.1-1.3-.1-1.6-.1-4.8s0-3.6.1-4.8c.1-1.2.2-1.8.4-2.2.2-.6.5-1 .9-1.4s.8-.7 1.4-.9c.4-.2 1.1-.4 2.2-.4 1.2-.1 1.6-.1 4.8-.1m0-2.2c-3.3 0-3.7 0-4.9.1-1.3.1-2.1.3-2.9.6-.8.3-1.5.7-2.1 1.4-.7.7-1.1 1.3-1.4 2.1-.3.8-.5 1.6-.6 2.9s-.1 1.7-.1 4.9 0 3.7.1 4.9c.1 1.3.3 2.1.6 2.9s.7 1.5 1.4 2.1c.7.7 1.3 1.1 2.1 1.4s1.6.5 2.9.6c1.3.1 1.7.1 4.9.1s3.7 0 4.9-.1c1.3-.1 2.1-.3 2.9-.6.8-.3 1.5-.7 2.1-1.4.7-.7 1.1-1.3 1.4-2.1.3-.8.5-1.6.6-2.9s.1-1.7.1-4.9 0-3.7-.1-4.9c-.1-1.3-.3-2.1-.6-2.9s-.7-1.5-1.4-2.1c-.7-.7-1.3-1.1-2.1-1.4s-1.6-.5-2.9-.6c-1.2-.1-1.6-.1-4.9-.1"/><path id="Fill-2_1_" class="st0" d="M-428 274.8c-3.4 0-6.2 2.8-6.2 6.2s2.8 6.2 6.2 6.2 6.2-2.8 6.2-6.2-2.8-6.2-6.2-6.2zm0 10.2c-2.2 0-4-1.8-4-4s1.8-4 4-4 4 1.8 4 4-1.8 4-4 4z"/><path id="Fill-3_1_" class="st0" d="M-420.2 274.6c0 .8-.6 1.4-1.4 1.4s-1.4-.6-1.4-1.4.6-1.4 1.4-1.4 1.4.6 1.4 1.4"/></svg>