<svg id="Слой_1" xmlns="http://www.w3.org/2000/svg" viewBox="-438.1 273 20.1 16.3"><style>.st0{fill:#3f4d60;enable-background:new}</style><title>3DC2A956-E958-45D9-9116-A3CFAE9CF3D5</title><path id="_Path_2" class="st0" d="M-418 274.9c-.7.3-1.5.6-2.4.7.9-.5 1.5-1.3 1.8-2.3-.8.5-1.7.8-2.6 1-1.3-1.4-3.3-1.7-4.9-.8-1.6.9-2.5 2.7-2.1 4.6-3.3-.2-6.4-1.7-8.5-4.3-1.1 1.9-.5 4.3 1.3 5.5-.7 0-1.3-.2-1.9-.5 0 1.9 1.4 3.6 3.3 4-.6.2-1.2.2-1.8.1.5 1.7 2.1 2.8 3.8 2.8-1.5 1.1-3.2 1.8-5.1 1.8-.3 0-.7 0-1-.1 3.6 2.3 8.2 2.5 11.9.4s6.1-6 6.1-10.3v-.5c.9-.6 1.6-1.3 2.1-2.1z"/></svg>