<svg id="Слой_1" xmlns="http://www.w3.org/2000/svg" viewBox="-439.5 273.1 22 15.5"><style>.st0{fill:#3f4d60;enable-background:new}</style><title>8891810F-E69B-4A73-B113-773C0432772A</title><path id="Shape" class="st0" d="M-418.6 274.2c-.6-.6-1.4-.9-2.2-.9-3.1-.2-7.7-.2-7.7-.2s-6.9.2-7.7.2-1.6.3-2.2.9c-.5.6-.8 1.4-.9 2.2-.1 1.2-.2 2.4-.2 3.6v1.7c0 1.2.1 2.4.2 3.6.1.8.4 1.5.9 2.2.7.6 1.5.9 2.4.9 1.8.2 7.5.2 7.5.2s4.6 0 7.7-.2c.8 0 1.6-.3 2.2-.9.5-.6.8-1.4.9-2.2.1-1.2.2-2.4.2-3.6V280c0-1.2-.1-2.4-.2-3.6-.2-.9-.5-1.6-.9-2.2zm-11.9 9.4v-6.2l5.9 3.1-5.9 3.1z"/></svg>